<?xml version="1.0" standalone="no"?>
<!DOCTYPE svg PUBLIC "-//W3C//DTD SVG 20010904//EN"
 "http://www.w3.org/TR/2001/REC-SVG-20010904/DTD/svg10.dtd">
<svg version="1.0" xmlns="http://www.w3.org/2000/svg"
 width="564.000000pt" height="564.000000pt" viewBox="0 0 564.000000 564.000000"
 preserveAspectRatio="xMidYMid meet">
<metadata>
Created by potrace 1.11, written by Peter Selinger 2001-2013
</metadata>
<g transform="translate(0.000000,564.000000) scale(0.100000,-0.100000)"
fill="#000000" stroke="none">
<path d="M2745 5623 c-48 -9 -112 -47 -133 -77 -26 -39 -25 -55 15 -178 15
-46 27 -85 28 -88 3 -11 18 -47 31 -77 20 -43 18 -58 -10 -76 -59 -39 -52
-157 11 -186 13 -6 22 -14 20 -19 -3 -4 -8 -31 -12 -61 -15 -121 -20 -131 -58
-132 -141 -3 -400 -69 -582 -147 -144 -62 -349 -188 -449 -275 l-40 -35 -83
56 -83 55 6 37 c6 39 -7 75 -35 98 -32 26 -75 40 -97 32 -23 -9 -44 4 -44 27
0 26 -120 260 -147 288 -25 24 -33 27 -75 22 -114 -14 -248 -157 -248 -266 0
-37 5 -49 36 -77 19 -19 42 -34 50 -34 8 0 14 -4 14 -10 0 -5 5 -10 11 -10 6
0 45 -16 87 -36 43 -20 93 -42 111 -49 33 -11 35 -15 36 -58 1 -25 10 -57 19
-72 23 -35 80 -59 114 -47 24 8 29 3 79 -70 29 -42 53 -80 53 -83 0 -3 -34
-50 -75 -104 -41 -55 -75 -104 -75 -110 0 -6 -4 -11 -10 -11 -5 0 -10 -5 -10
-11 0 -6 -8 -23 -19 -37 -72 -101 -197 -415 -227 -567 -2 -11 -6 -31 -9 -45
-13 -59 -27 -166 -28 -207 -1 -17 -8 -24 -32 -28 -16 -3 -43 -7 -60 -10 -102
-18 -110 -18 -124 9 -24 44 -101 59 -150 30 -17 -10 -31 -21 -31 -24 0 -3 -4
-11 -8 -18 -7 -10 -34 -3 -123 29 -221 81 -256 85 -305 33 -44 -46 -63 -111
-59 -199 5 -95 37 -164 91 -193 32 -17 82 -6 244 51 145 52 149 53 154 32 7
-26 49 -48 92 -49 34 0 94 22 94 34 0 5 6 15 14 23 12 12 27 11 102 -1 49 -9
90 -16 92 -17 4 -3 10 -39 16 -100 19 -184 86 -405 183 -604 69 -142 94 -181
183 -300 30 -40 61 -82 69 -93 13 -17 9 -26 -35 -91 l-49 -72 -52 -1 c-42 -1
-57 -6 -73 -25 -33 -38 -49 -80 -40 -105 8 -21 -4 -44 -22 -44 -4 0 -41 -15
-80 -33 -40 -19 -78 -36 -83 -38 -6 -2 -38 -19 -71 -37 -64 -35 -84 -62 -84
-113 0 -34 38 -129 51 -129 5 0 9 -5 9 -12 0 -18 66 -74 114 -97 23 -12 61
-21 83 -21 34 0 46 6 72 36 31 35 133 237 130 257 0 1 6 15 14 31 13 24 22 28
61 30 28 1 56 10 73 22 34 25 54 80 42 111 -7 20 -1 28 54 65 34 23 64 44 67
48 16 21 42 17 78 -13 104 -87 223 -162 367 -232 109 -53 265 -114 333 -130 9
-3 44 -11 77 -19 33 -8 62 -13 64 -11 2 3 11 0 20 -5 10 -5 46 -12 82 -16 35
-4 73 -8 84 -10 11 -1 25 -3 31 -3 6 -1 16 -38 23 -83 7 -46 14 -90 17 -99 2
-9 -5 -21 -20 -28 -13 -7 -30 -24 -37 -37 -26 -50 -8 -137 33 -150 21 -6 24
-41 4 -69 -7 -11 -16 -31 -19 -45 -3 -14 -19 -65 -36 -115 -48 -139 -46 -174
11 -215 81 -59 201 -70 299 -26 62 27 97 73 91 116 -8 48 -51 179 -94 283
l-19 48 30 28 c34 32 46 67 37 114 -6 33 -34 71 -56 79 -7 2 -7 30 3 96 8 51
16 94 19 97 3 3 27 8 54 11 121 12 324 55 401 85 15 6 35 12 44 14 34 7 264
116 328 155 36 23 75 46 85 53 24 14 29 18 81 58 47 35 73 56 97 76 13 12 21
12 39 2 13 -7 29 -17 35 -24 7 -6 35 -26 62 -44 45 -29 50 -35 43 -59 -6 -24
-7 -33 -2 -59 6 -38 91 -86 140 -81 20 3 27 -6 50 -62 82 -195 119 -256 168
-269 111 -31 290 117 295 245 2 67 -42 103 -239 189 l-113 50 -1 40 c-1 22 -1
43 0 47 0 4 -15 24 -35 44 -33 32 -41 35 -81 32 l-45 -3 -53 76 c-57 83 -57
83 -7 140 147 165 328 542 369 768 2 14 9 46 15 71 11 50 14 70 23 150 3 30 9
58 14 63 4 4 25 9 47 12 35 4 101 13 121 16 21 3 32 -3 38 -20 8 -25 71 -50
112 -44 30 5 83 45 83 63 0 5 38 -7 85 -25 47 -19 85 -31 85 -28 0 3 6 0 13
-6 8 -6 22 -12 33 -14 10 -2 26 -6 34 -9 136 -48 191 -17 225 128 14 62 0 131
-45 208 -25 45 -80 93 -91 81 -3 -2 -18 -6 -34 -9 -34 -6 -211 -66 -268 -90
l-37 -16 -34 33 c-27 27 -42 34 -80 36 -42 2 -51 -2 -82 -33 -36 -36 -32 -36
-139 -20 -22 4 -48 7 -57 8 -25 3 -27 7 -33 67 -3 30 -7 68 -10 84 -3 17 -7
41 -9 55 -46 286 -194 612 -385 850 -51 63 -57 75 -43 82 4 2 29 36 56 75 43
63 52 72 73 67 73 -19 137 35 138 115 1 37 5 46 26 55 13 6 57 25 97 43 39 18
74 33 77 33 2 0 31 16 64 35 50 30 62 42 71 73 33 126 -117 293 -259 288 -57
-2 -64 -7 -113 -101 -28 -52 -99 -205 -99 -212 1 -21 -16 -30 -53 -29 -53 0
-91 -23 -113 -70 -14 -28 -15 -41 -6 -64 9 -24 9 -30 -2 -30 -7 0 -15 -4 -17
-8 -6 -16 -142 -102 -148 -93 -11 18 -157 124 -239 175 -145 90 -360 184 -495
217 -23 5 -48 11 -56 13 -8 2 -33 9 -55 14 -22 6 -65 14 -95 18 -30 4 -58 9
-62 10 -5 1 -28 2 -52 3 -48 1 -48 1 -60 86 -2 17 -7 49 -11 72 -6 38 -4 44
26 71 27 24 33 37 35 76 2 42 -1 52 -32 86 -28 31 -33 43 -26 57 11 19 61 157
67 183 2 8 11 35 19 59 26 70 21 105 -19 145 -19 19 -52 40 -72 46 -40 12
-144 20 -178 13z m131 -1131 c13 -49 13 -54 -11 -78 -65 -65 -163 18 -110 93
29 42 108 32 121 -15z m134 -316 c92 -12 224 -45 290 -73 19 -8 46 -20 60 -25
14 -6 52 -24 85 -41 33 -17 70 -36 82 -42 13 -5 23 -13 23 -17 0 -5 5 -8 11
-8 13 0 159 -109 159 -119 0 -3 -21 -25 -45 -49 -25 -24 -46 -49 -46 -55 -1
-7 -2 -20 -3 -29 -1 -9 -25 -42 -54 -72 -53 -55 -54 -55 -102 -49 -133 16
-298 -120 -337 -277 -5 -19 -8 -41 -7 -47 1 -7 2 -24 3 -37 2 -37 54 -84 99
-88 43 -4 130 18 153 38 8 8 20 14 25 14 15 0 88 73 120 120 39 58 55 115 49
173 -4 44 -2 48 46 97 34 35 61 54 82 57 20 3 50 22 80 51 l48 47 35 -40 c152
-176 278 -468 300 -692 3 -32 7 -64 9 -70 3 -7 -3 -13 -13 -13 -133 -4 -153
-7 -166 -25 -10 -14 -27 -19 -75 -20 -52 -1 -63 2 -75 19 -7 12 -29 38 -48 59
l-34 39 -179 0 c-269 -1 -253 1 -280 -26 -47 -47 -33 -51 193 -49 178 1 209
-1 219 -14 8 -10 9 -22 3 -32 -8 -15 -32 -17 -215 -16 -113 0 -210 -2 -215 -5
-5 -3 -8 -14 -6 -25 3 -19 12 -20 216 -23 141 -1 216 -6 221 -13 4 -6 4 -20 2
-30 -6 -20 -26 -22 -330 -20 -110 1 -112 1 -108 -21 10 -50 19 -52 256 -53
l221 0 25 25 c14 14 36 42 49 63 26 40 26 40 94 37 30 -1 52 -9 67 -22 14 -13
30 -19 43 -15 11 3 20 2 20 -2 0 -3 17 -5 38 -4 54 3 71 -4 67 -28 -2 -11 -7
-48 -10 -82 -3 -35 -7 -71 -10 -82 -3 -11 -11 -47 -19 -80 -40 -173 -155 -398
-264 -517 l-34 -36 -50 49 c-35 34 -58 49 -73 47 -15 -2 -39 14 -76 49 l-55
53 2 61 c1 34 -2 69 -6 78 -5 9 -17 34 -27 56 -38 87 -161 182 -259 201 -54
10 -117 -12 -139 -49 -20 -34 -24 -122 -6 -140 6 -6 11 -20 11 -30 0 -36 76
-129 145 -176 56 -39 121 -58 178 -54 48 4 50 3 103 -52 40 -41 53 -61 49 -75
-4 -13 8 -33 45 -71 27 -28 50 -54 49 -58 -2 -24 -221 -169 -332 -221 -146
-66 -334 -116 -436 -115 l-44 0 -1 72 c-1 56 -5 77 -20 94 -13 16 -19 40 -21
81 l-2 58 47 36 c27 20 53 46 60 58 8 15 10 88 8 237 -3 189 -5 218 -21 233
-9 10 -25 16 -34 14 -16 -3 -17 -23 -17 -221 l1 -217 -23 -6 c-13 -3 -27 -4
-31 -1 -5 3 -8 103 -8 223 l0 217 25 4 c159 23 322 166 359 315 1 4 6 22 11
39 10 34 14 162 6 194 -23 96 -70 178 -141 243 -93 87 -209 130 -340 126 -22
0 -42 2 -45 7 -7 11 -4 435 4 447 3 6 14 9 24 7 9 -2 20 -4 24 -4 4 -1 7 -13
7 -28 3 -376 6 -416 25 -419 11 -2 25 0 30 4 7 5 11 81 11 219 0 224 5 251 43
227 15 -10 17 -34 18 -220 2 -254 0 -233 24 -227 46 12 50 34 50 266 l0 218
-37 32 c-81 72 -80 69 -78 127 1 39 7 62 20 78 14 16 20 39 21 80 3 97 1 93
32 88 15 -3 47 -7 72 -10z m-280 -95 c4 -63 9 -86 23 -95 12 -10 17 -27 17
-67 l0 -54 -59 -43 c-32 -24 -61 -51 -63 -60 -2 -9 -4 -113 -3 -231 1 -210 1
-214 24 -232 13 -10 27 -16 32 -13 5 3 9 1 9 -4 0 -5 -15 -12 -33 -15 -41 -6
-138 -52 -165 -78 -28 -25 -33 -24 -22 5 26 70 -27 205 -112 281 -73 65 -130
90 -209 90 l-66 0 -54 55 c-38 39 -53 61 -51 77 2 15 -12 37 -48 73 l-51 51
48 40 c56 46 178 129 191 129 5 0 20 8 33 18 27 21 212 96 279 113 43 11 54
13 103 24 12 3 49 8 82 11 33 3 62 8 64 10 16 15 27 -14 31 -85z m-1040 -26
c66 -34 52 -122 -22 -140 -54 -13 -101 72 -65 117 10 13 45 37 55 38 2 0 16
-7 32 -15z m2310 1 c0 5 9 -4 20 -21 25 -37 25 -66 2 -93 -46 -53 -122 -24
-122 47 0 53 53 94 88 68 6 -5 12 -6 12 -1z m-2153 -371 c23 -25 46 -45 50
-46 4 0 18 -2 31 -3 13 -2 45 -25 72 -51 49 -48 49 -49 49 -113 -1 -148 132
-301 287 -329 27 -5 62 -6 77 -2 28 7 37 -4 14 -18 -7 -4 -29 -40 -48 -80 -33
-67 -36 -70 -49 -52 -14 18 -28 19 -241 19 l-227 0 -28 -34 c-16 -19 -36 -45
-45 -57 -13 -19 -26 -23 -75 -24 -49 -1 -63 3 -84 22 -22 20 -33 23 -98 21
l-73 -3 5 55 c6 53 9 76 21 130 3 14 7 34 9 45 12 59 54 172 95 260 60 125
179 302 206 304 5 1 28 -19 52 -44z m1059 -575 c113 -37 203 -160 199 -275 -5
-121 -58 -210 -159 -263 -44 -23 -63 -27 -136 -27 -95 0 -136 16 -201 77 -63
59 -83 110 -83 208 -1 73 3 92 26 135 69 131 214 190 354 145z m-572 -178 c2
-4 2 -18 -1 -32 l-4 -26 -202 1 c-111 0 -208 4 -214 8 -7 5 -13 17 -13 27 0
10 6 20 13 23 20 7 417 6 421 -1z m-1124 -37 c68 -35 39 -140 -36 -131 -42 4
-61 20 -69 56 -7 34 18 76 50 83 11 2 21 5 23 6 2 0 16 -6 32 -14z m3293 -17
c42 -49 2 -124 -61 -114 -51 8 -66 31 -63 92 1 26 56 56 86 48 11 -3 28 -15
38 -26z m-2201 -68 l47 0 11 -57 c13 -63 48 -139 87 -190 l25 -33 -31 11 c-73
26 -185 -16 -268 -99 -45 -45 -94 -123 -100 -160 -5 -32 -6 -113 0 -118 2 -3
-22 -31 -55 -62 -41 -39 -65 -56 -80 -54 -15 3 -39 -15 -83 -58 l-62 -62 -35
44 c-168 208 -283 485 -303 731 l-5 64 38 -7 c21 -3 47 -3 58 0 10 4 24 3 30
-2 8 -5 22 0 41 16 22 18 43 25 81 27 29 2 53 1 55 -2 2 -2 18 -25 36 -52 51
-75 48 -74 293 -73 204 2 219 3 233 21 8 11 15 27 15 36 0 15 -22 17 -206 18
-113 0 -210 3 -215 6 -14 9 -11 43 5 52 8 4 88 7 178 6 90 -1 184 -2 210 -3z
m210 -349 c6 -15 85 -60 138 -77 45 -15 49 -18 34 -27 -11 -6 -23 -17 -29 -26
-5 -9 -10 -112 -10 -231 l-1 -215 36 -35 c20 -19 49 -43 63 -53 24 -16 27 -24
27 -75 0 -46 -4 -60 -20 -70 -17 -11 -20 -23 -20 -98 0 -47 -3 -83 -7 -81 -5
3 -33 8 -63 12 -30 4 -68 9 -83 11 -59 7 -216 54 -299 89 -100 42 -228 118
-318 188 l-62 49 51 52 c33 34 51 60 51 76 0 16 19 43 56 81 50 50 60 56 81
48 15 -5 43 -5 76 2 152 32 282 182 281 326 0 55 8 80 18 54z m251 -100 c16
-1 18 -14 18 -143 -1 -229 -2 -281 -7 -290 -9 -15 -43 -8 -51 10 -10 21 -9
244 1 260 4 7 4 12 -1 12 -4 0 -8 35 -8 79 0 65 2 78 15 76 8 -2 23 -4 33 -4z
m-1040 -653 c17 -36 13 -59 -18 -88 -52 -49 -142 15 -116 82 23 61 106 65 134
6z m2296 16 c28 -35 26 -69 -4 -99 -27 -28 -46 -31 -78 -13 -52 27 -61 75 -22
113 33 34 77 33 104 -1z m-1161 -479 c66 -55 3 -148 -77 -115 -42 17 -55 76
-23 109 35 37 62 38 100 6z"/>
</g>
</svg>
