<svg width="58" height="58" viewBox="0 0 58 58" fill="none" xmlns="http://www.w3.org/2000/svg">
<circle cx="29.2998" cy="28.8835" r="27.9557" stroke="white" stroke-opacity="0.2" stroke-width="0.931856"/>
<path d="M29.2998 23.5223C26.9702 23.5223 25.1138 25.4151 25.1138 27.7083C25.1138 30.038 26.9702 31.8944 29.2998 31.8944C31.5931 31.8944 33.4859 30.038 33.4859 27.7083C33.4859 25.4151 31.5931 23.5223 29.2998 23.5223ZM29.2998 30.4384C27.8074 30.4384 26.5698 29.2372 26.5698 27.7083C26.5698 26.2159 27.771 25.0147 29.2998 25.0147C30.7923 25.0147 31.9935 26.2159 31.9935 27.7083C31.9935 29.2372 30.7923 30.4384 29.2998 30.4384ZM34.6143 23.3767C34.6143 22.8307 34.1775 22.3939 33.6315 22.3939C33.0855 22.3939 32.6487 22.8307 32.6487 23.3767C32.6487 23.9227 33.0855 24.3595 33.6315 24.3595C34.1775 24.3595 34.6143 23.9227 34.6143 23.3767ZM37.3808 24.3595C37.308 23.0491 37.0168 21.8843 36.0703 20.9378C35.1239 19.9914 33.9591 19.7002 32.6487 19.6274C31.3019 19.5546 27.2614 19.5546 25.9146 19.6274C24.6042 19.7002 23.4757 19.9914 22.4929 20.9378C21.5465 21.8843 21.2553 23.0491 21.1825 24.3595C21.1097 25.7063 21.1097 29.7468 21.1825 31.0936C21.2553 32.404 21.5465 33.5324 22.4929 34.5153C23.4757 35.4617 24.6042 35.7529 25.9146 35.8257C27.2614 35.8985 31.3019 35.8985 32.6487 35.8257C33.9591 35.7529 35.1239 35.4617 36.0703 34.5153C37.0168 33.5324 37.308 32.404 37.3808 31.0936C37.4536 29.7468 37.4536 25.7063 37.3808 24.3595ZM35.6335 32.5132C35.3787 33.2412 34.7963 33.7873 34.1047 34.0785C33.0127 34.5153 30.4647 34.4061 29.2998 34.4061C28.0986 34.4061 25.5506 34.5153 24.495 34.0785C23.7669 33.7873 23.2209 33.2412 22.9297 32.5132C22.4929 31.4576 22.6021 28.9096 22.6021 27.7083C22.6021 26.5435 22.4929 23.9955 22.9297 22.9035C23.2209 22.2119 23.7669 21.6658 24.495 21.3746C25.5506 20.9378 28.0986 21.047 29.2998 21.047C30.4647 21.047 33.0127 20.9378 34.1047 21.3746C34.7963 21.6294 35.3423 22.2119 35.6335 22.9035C36.0703 23.9955 35.9611 26.5435 35.9611 27.7083C35.9611 28.9096 36.0703 31.4576 35.6335 32.5132Z" fill="white"/>
</svg>
