<svg width="58" height="58" viewBox="0 0 58 58" fill="none" xmlns="http://www.w3.org/2000/svg">
<circle cx="29.2998" cy="29.335" r="27.9557" stroke="white" stroke-opacity="0.2" stroke-width="0.931856"/>
<path d="M36.6892 24.3743C37.4172 23.8282 38.0724 23.173 38.582 22.4086C37.9268 22.6998 37.1624 22.9182 36.398 22.991C37.1988 22.5178 37.7812 21.7898 38.0724 20.8798C37.3444 21.3166 36.5072 21.6442 35.6699 21.8262C34.9419 21.0618 33.9591 20.625 32.8671 20.625C30.7559 20.625 29.045 22.3358 29.045 24.4471C29.045 24.7383 29.0814 25.0295 29.1542 25.3207C25.9874 25.1387 23.1481 23.6098 21.2553 21.3166C20.9277 21.8626 20.7457 22.5178 20.7457 23.2458C20.7457 24.5563 21.4009 25.7211 22.4565 26.4127C21.8377 26.3763 21.2189 26.2307 20.7093 25.9395V25.9759C20.7093 27.8323 22.0197 29.3611 23.7669 29.7251C23.4757 29.7979 23.1117 29.8707 22.7841 29.8707C22.5293 29.8707 22.3109 29.8343 22.0561 29.7979C22.5293 31.3268 23.9489 32.4188 25.6234 32.4552C24.3129 33.4744 22.6749 34.0932 20.8913 34.0932C20.5637 34.0932 20.2725 34.0568 19.9813 34.0204C21.6557 35.1124 23.6577 35.7312 25.8418 35.7312C32.8671 35.7312 36.6892 29.9435 36.6892 24.8839C36.6892 24.7019 36.6892 24.5563 36.6892 24.3743Z" fill="white"/>
</svg>
